<svg width="261" height="261" viewBox="0 0 261 261" fill="none" xmlns="http://www.w3.org/2000/svg">
<g filter="url(#filter0_d_301_8852)">
<rect x="40.724" y="36.4058" width="180" height="180" rx="32" fill="#1D1F23"/>
<rect x="41.224" y="36.9058" width="179" height="179" rx="31.5" stroke="black"/>
</g>
<path d="M116.696 161.175C112.194 157.045 110.88 148.368 112.755 142.082C116.008 146.045 120.514 147.301 125.182 148.009C132.388 149.103 139.465 148.694 146.159 145.389C146.925 145.011 147.633 144.508 148.469 143.998C149.098 145.826 149.261 147.673 149.042 149.551C148.508 154.127 146.239 157.662 142.629 160.341C141.186 161.413 139.658 162.371 138.168 163.382C133.588 166.488 132.349 170.129 134.07 175.427C134.111 175.556 134.148 175.685 134.24 176C131.902 174.95 130.194 173.421 128.893 171.411C127.518 169.289 126.864 166.942 126.83 164.403C126.812 163.167 126.812 161.92 126.647 160.702C126.242 157.732 124.853 156.402 122.235 156.325C119.548 156.247 117.423 157.913 116.86 160.538C116.817 160.739 116.754 160.938 116.692 161.172L116.696 161.175Z" fill="#FF5D01"/>
<path d="M91 141.034C91 141.034 104.332 134.517 117.7 134.517L127.78 103.215C128.157 101.702 129.259 100.673 130.503 100.673C131.747 100.673 132.849 101.702 133.226 103.215L143.306 134.517C159.14 134.517 170.007 141.034 170.007 141.034C170.007 141.034 147.362 79.133 147.317 79.0088C146.667 77.1787 145.57 76 144.091 76H116.918C115.439 76 114.386 77.1787 113.691 79.0088C113.643 79.1307 91 141.034 91 141.034Z" fill="white"/>
<defs>
<filter id="filter0_d_301_8852" x="0.723999" y="0.405762" width="260" height="260" filterUnits="userSpaceOnUse" color-interpolation-filters="sRGB">
<feFlood flood-opacity="0" result="BackgroundImageFix"/>
<feColorMatrix in="SourceAlpha" type="matrix" values="0 0 0 0 0 0 0 0 0 0 0 0 0 0 0 0 0 0 127 0" result="hardAlpha"/>
<feOffset dy="4"/>
<feGaussianBlur stdDeviation="20"/>
<feComposite in2="hardAlpha" operator="out"/>
<feColorMatrix type="matrix" values="0 0 0 0 0.0367917 0 0 0 0 0.0348958 0 0 0 0 0.0484375 0 0 0 0.1 0"/>
<feBlend mode="normal" in2="BackgroundImageFix" result="effect1_dropShadow_301_8852"/>
<feBlend mode="normal" in="SourceGraphic" in2="effect1_dropShadow_301_8852" result="shape"/>
</filter>
</defs>
</svg>
